<?xml version="1.0" standalone="no"?>
<!DOCTYPE svg PUBLIC "-//W3C//DTD SVG 20010904//EN"
 "http://www.w3.org/TR/2001/REC-SVG-20010904/DTD/svg10.dtd">
<svg version="1.0" xmlns="http://www.w3.org/2000/svg"
 width="500.000000pt" height="500.000000pt" viewBox="0 0 500.000000 500.000000"
 preserveAspectRatio="xMidYMid meet">

<g transform="translate(0.000000,500.000000) scale(0.100000,-0.100000)"
fill="#000000" stroke="none">
<path d="M2347 3350 c-93 -32 -170 -60 -173 -63 -3 -2 26 -17 63 -32 37 -15
118 -49 179 -75 l111 -47 89 34 c51 19 100 32 114 29 14 -3 106 -39 204 -81
l180 -77 65 26 c36 15 72 30 79 35 12 7 -91 52 -323 141 -33 13 -82 33 -110
46 -110 48 -295 124 -302 123 -5 0 -84 -27 -176 -59z"/>
<path d="M1975 3218 c-16 -6 -46 -17 -65 -25 l-35 -15 85 -40 c47 -22 153 -68
235 -103 83 -35 194 -84 248 -109 54 -25 104 -46 110 -46 15 0 169 59 180 69
4 4 -52 31 -125 60 -73 29 -218 89 -323 134 -196 83 -252 97 -310 75z"/>
<path d="M1757 3114 c-4 -4 -7 -249 -7 -544 l0 -536 118 -57 c64 -31 231 -115
371 -186 139 -72 255 -131 257 -131 2 0 4 80 4 178 l0 178 -60 29 -60 29 0 48
c0 26 2 48 5 48 3 0 28 -11 55 -25 27 -14 52 -25 55 -25 3 0 5 69 5 153 l0
152 -60 27 -60 26 0 46 c0 25 4 46 10 46 5 0 32 -9 60 -20 l50 -20 0 135 c0
120 -2 136 -17 141 -20 7 -212 90 -307 133 -34 16 -90 40 -126 56 -36 15 -110
47 -165 72 -55 25 -105 47 -111 49 -5 3 -13 1 -17 -2z m493 -724 c0 -138 -2
-250 -5 -250 -2 0 -20 8 -40 17 l-35 17 0 253 0 253 40 -20 40 -20 0 -250z"/>
<path d="M2673 2822 l-73 -25 0 -134 c0 -153 -11 -142 97 -98 l58 23 3 131 c1
72 -1 131 -5 130 -4 -1 -41 -13 -80 -27z"/>
<path d="M3155 2643 c-60 -25 -153 -63 -205 -84 l-95 -38 -3 -140 c-1 -78 -1
-141 1 -141 3 0 51 21 108 46 57 25 150 64 206 87 l103 42 0 138 c0 75 -1 136
-2 136 -2 -1 -52 -22 -113 -46z"/>
<path d="M2675 2450 l-70 -27 -3 -146 -3 -145 78 34 78 33 3 141 c1 77 -1 140
-5 139 -5 0 -39 -13 -78 -29z"/>
<path d="M3180 2280 c-186 -85 -222 -100 -233 -100 -7 -1 -23 -7 -37 -14 -23
-13 -19 -16 116 -84 l141 -71 51 25 52 25 0 129 c0 72 -1 130 -2 129 -2 -1
-41 -18 -88 -39z"/>
<path d="M2678 2062 l-78 -35 0 -174 0 -173 80 40 80 40 0 170 c0 94 -1 170
-2 169 -2 0 -38 -17 -80 -37z"/>
</g>
</svg>
